<svg xmlns="http://www.w3.org/2000/svg" xmlns:xlink="http://www.w3.org/1999/xlink" width="220" zoomAndPan="magnify" viewBox="0 0 165 83.999999" height="112" preserveAspectRatio="xMidYMid meet" version="1.0"><defs><clipPath id="676ddc46bf"><path d="M 0 27 L 164.25 27 L 164.25 83.511719 L 0 83.511719 Z M 0 27 " clip-rule="nonzero"/></clipPath><clipPath id="3aa84282a7"><path d="M 28 0.261719 L 36 0.261719 L 36 10 L 28 10 Z M 28 0.261719 " clip-rule="nonzero"/></clipPath></defs><g clip-path="url(#676ddc46bf)"><path fill="#fce7e4" d="M 161.730469 27.207031 L 131.082031 27.207031 C 129.667969 27.207031 128.515625 28.355469 128.515625 29.773438 L 128.515625 41.441406 L 100.140625 41.441406 C 98.722656 41.441406 97.574219 42.589844 97.574219 44.007812 L 97.574219 54.152344 L 68.0625 54.152344 C 66.644531 54.152344 65.496094 55.300781 65.496094 56.71875 L 65.496094 65.703125 L 37.269531 65.703125 C 35.851562 65.703125 34.703125 66.851562 34.703125 68.265625 L 34.703125 78.53125 L 2.625 78.53125 C 1.207031 78.53125 0.0585938 79.679688 0.0585938 81.097656 C 0.0585938 82.515625 1.207031 83.664062 2.625 83.664062 L 37.269531 83.664062 C 38.6875 83.664062 39.835938 82.515625 39.835938 81.097656 L 39.835938 70.832031 L 68.0625 70.832031 C 69.480469 70.832031 70.628906 69.683594 70.628906 68.265625 L 70.628906 59.285156 L 100.140625 59.285156 C 101.558594 59.285156 102.707031 58.136719 102.707031 56.71875 L 102.707031 46.574219 L 131.082031 46.574219 C 132.5 46.574219 133.648438 45.421875 133.648438 44.007812 L 133.648438 32.339844 L 161.730469 32.339844 C 163.148438 32.339844 164.296875 31.191406 164.296875 29.773438 C 164.296875 28.355469 163.148438 27.207031 161.730469 27.207031 Z M 161.730469 27.207031 " fill-opacity="1" fill-rule="nonzero"/></g><path fill="#fce7e4" d="M 29.792969 11.808594 C 28.050781 11.808594 26.960938 13.164062 26.621094 13.546875 C 26.621094 13.546875 19.761719 21 19.6875 21.082031 C 19.25 21.554688 18.953125 22.015625 18.71875 22.617188 L 15.636719 30.585938 C 15.117188 31.925781 15.757812 33.445312 17.070312 33.976562 C 17.378906 34.097656 17.695312 34.160156 18.011719 34.160156 C 19.027344 34.160156 19.988281 33.535156 20.382812 32.507812 L 23.445312 24.601562 L 25.34375 22.488281 C 25.308594 22.664062 25.277344 22.839844 25.242188 23.015625 C 25.242188 23.015625 23.753906 33.289062 24.648438 40.253906 C 24.648438 40.253906 25.414062 44.953125 24.734375 47.476562 C 24.734375 47.476562 22.363281 60.742188 21.671875 63.675781 C 21.390625 64.878906 21.511719 66.34375 22.339844 67.261719 C 22.96875 67.960938 23.761719 68.265625 24.539062 68.265625 C 25.929688 68.265625 27.28125 67.285156 27.609375 65.820312 L 31.710938 48.433594 L 32.136719 46.871094 C 32.136719 46.871094 32.527344 44.582031 32.207031 43.3125 L 31.832031 39.710938 C 31.832031 39.710938 31.726562 39.398438 31.953125 39.230469 C 31.996094 39.199219 32.042969 39.1875 32.09375 39.1875 C 32.253906 39.1875 32.425781 39.304688 32.425781 39.304688 L 38.191406 41.777344 C 38.191406 41.777344 38.734375 42.496094 38.667969 43.867188 C 38.667969 43.867188 38.601562 50.355469 38.605469 50.40625 C 38.632812 51.933594 38.683594 53.789062 40.195312 54.582031 C 41.359375 55.195312 43.015625 55.007812 43.929688 54 C 44.554688 53.3125 44.882812 52.425781 44.894531 51.484375 L 45.410156 42.050781 C 45.515625 40.390625 45.816406 39.003906 44.03125 37.996094 C 44.03125 37.996094 37.65625 34.285156 37.632812 34.273438 C 36.25 33.691406 36.503906 32.523438 36.53125 31.226562 C 36.539062 30.625 36.566406 30.019531 36.589844 29.417969 C 36.59375 29.273438 36.609375 29.136719 36.605469 28.992188 C 36.605469 28.992188 36.597656 28.472656 37.242188 28.472656 C 37.253906 28.472656 37.269531 28.472656 37.285156 28.472656 C 39.136719 28.472656 44.261719 28.511719 44.285156 28.511719 C 46.820312 28.511719 47.214844 23.386719 43.59375 23.386719 C 43.570312 23.386719 43.546875 23.386719 43.519531 23.386719 C 43.519531 23.386719 37.011719 23.148438 36.988281 23.144531 C 36.59375 23.125 36.582031 22.753906 36.570312 22.355469 C 36.519531 20.542969 36.410156 19.140625 35.980469 17.355469 C 35.621094 15.839844 34.9375 14.429688 33.683594 13.484375 C 32.71875 12.761719 31.648438 12.179688 30.480469 11.886719 C 30.238281 11.824219 29.792969 11.808594 29.792969 11.808594 Z M 29.792969 11.808594 " fill-opacity="1" fill-rule="nonzero"/><g clip-path="url(#3aa84282a7)"><path fill="#fce7e4" d="M 35.984375 4.753906 C 35.984375 5.046875 35.960938 5.339844 35.910156 5.628906 C 35.863281 5.917969 35.789062 6.199219 35.691406 6.472656 C 35.597656 6.746094 35.476562 7.003906 35.335938 7.25 C 35.195312 7.492188 35.035156 7.71875 34.859375 7.929688 C 34.679688 8.136719 34.484375 8.324219 34.273438 8.488281 C 34.066406 8.652344 33.84375 8.789062 33.609375 8.902344 C 33.375 9.015625 33.136719 9.101562 32.886719 9.15625 C 32.640625 9.214844 32.390625 9.246094 32.136719 9.246094 C 31.882812 9.246094 31.632812 9.214844 31.386719 9.15625 C 31.136719 9.101562 30.898438 9.015625 30.664062 8.902344 C 30.429688 8.789062 30.207031 8.652344 29.996094 8.488281 C 29.789062 8.324219 29.59375 8.136719 29.414062 7.929688 C 29.234375 7.71875 29.074219 7.492188 28.9375 7.25 C 28.796875 7.003906 28.675781 6.746094 28.578125 6.472656 C 28.484375 6.199219 28.410156 5.917969 28.359375 5.628906 C 28.3125 5.339844 28.285156 5.046875 28.285156 4.753906 C 28.285156 4.457031 28.3125 4.167969 28.359375 3.878906 C 28.410156 3.589844 28.484375 3.308594 28.578125 3.035156 C 28.675781 2.761719 28.796875 2.503906 28.9375 2.257812 C 29.074219 2.011719 29.234375 1.785156 29.414062 1.578125 C 29.59375 1.371094 29.789062 1.183594 29.996094 1.019531 C 30.207031 0.855469 30.429688 0.71875 30.664062 0.605469 C 30.898438 0.492188 31.136719 0.40625 31.386719 0.347656 C 31.632812 0.292969 31.882812 0.261719 32.136719 0.261719 C 32.390625 0.261719 32.640625 0.292969 32.886719 0.347656 C 33.136719 0.40625 33.375 0.492188 33.609375 0.605469 C 33.84375 0.71875 34.066406 0.855469 34.273438 1.019531 C 34.484375 1.183594 34.679688 1.371094 34.859375 1.578125 C 35.035156 1.785156 35.195312 2.011719 35.335938 2.257812 C 35.476562 2.503906 35.597656 2.761719 35.691406 3.035156 C 35.789062 3.308594 35.863281 3.589844 35.910156 3.878906 C 35.960938 4.167969 35.984375 4.457031 35.984375 4.753906 Z M 35.984375 4.753906 " fill-opacity="1" fill-rule="nonzero"/></g></svg>