<svg xmlns="http://www.w3.org/2000/svg" xmlns:xlink="http://www.w3.org/1999/xlink" width="199" zoomAndPan="magnify" viewBox="0 0 149.25 110.249996" height="147" preserveAspectRatio="xMidYMid meet" version="1.0"><defs><clipPath id="c3c0db4aff"><path d="M 0.132812 18 L 148.375 18 L 148.375 109.503906 L 0.132812 109.503906 Z M 0.132812 18 " clip-rule="nonzero"/></clipPath></defs><path fill="#fce7e4" d="M 24.546875 60.628906 L 24.683594 60.628906 C 25.808594 60.671875 26.871094 61.179688 27.605469 62.027344 L 39.675781 76 L 39.675781 34.707031 L 11.484375 34.707031 L 11.484375 72.011719 L 21.683594 61.8125 C 22.445312 61.046875 23.460938 60.628906 24.546875 60.628906 Z M 24.546875 60.628906 " fill-opacity="1" fill-rule="nonzero"/><path fill="#fce7e4" d="M 76.902344 78.5625 L 76.902344 59.28125 L 48.710938 59.28125 L 48.710938 86.460938 L 58.027344 97.242188 Z M 76.902344 78.5625 " fill-opacity="1" fill-rule="nonzero"/><path fill="#fce7e4" d="M 114.132812 0.0117188 L 85.941406 0.0117188 L 85.941406 69.621094 L 114.132812 41.726562 Z M 114.132812 0.0117188 " fill-opacity="1" fill-rule="nonzero"/><g clip-path="url(#c3c0db4aff)"><path fill="#fce7e4" d="M 147.5625 19.066406 C 147.070312 18.503906 146.320312 18.246094 145.582031 18.378906 L 126.957031 21.832031 C 125.800781 22.046875 125.039062 23.15625 125.253906 24.308594 C 125.46875 25.464844 126.574219 26.226562 127.730469 26.011719 L 139.027344 23.917969 L 57.917969 104.183594 L 26.152344 67.410156 C 25.765625 66.964844 25.210938 66.699219 24.621094 66.675781 C 24.03125 66.65625 23.457031 66.878906 23.039062 67.300781 L 0.132812 90.207031 L 0.132812 96.21875 L 24.429688 71.917969 L 56.1875 108.683594 C 56.574219 109.128906 57.121094 109.394531 57.710938 109.414062 C 58.300781 109.433594 58.871094 109.214844 59.292969 108.804688 L 141.472656 27.480469 L 138.113281 37.894531 C 137.753906 39.007812 138.367188 40.207031 139.484375 40.570312 C 139.699219 40.640625 139.921875 40.671875 140.136719 40.671875 C 141.035156 40.671875 141.867188 40.097656 142.160156 39.195312 L 147.988281 21.121094 C 148.21875 20.410156 148.058594 19.628906 147.5625 19.066406 Z M 147.5625 19.066406 " fill-opacity="1" fill-rule="nonzero"/></g></svg>