<svg xmlns="http://www.w3.org/2000/svg" xmlns:xlink="http://www.w3.org/1999/xlink" width="178" zoomAndPan="magnify" viewBox="0 0 133.5 133.499994" height="178" preserveAspectRatio="xMidYMid meet" version="1.0"><path fill="#fce7e4" d="M 131.972656 130.003906 C 127.613281 127.167969 123.523438 124.054688 119.195312 120.753906 C 110.054688 113.789062 100.601562 106.585938 88.632812 102.425781 C 84.898438 101.125 77.726562 99.535156 72.445312 98.441406 C 86.496094 94.015625 98.472656 83.097656 105.984375 76.238281 C 107.300781 75.035156 108.480469 73.957031 109.507812 73.066406 C 112.09375 70.820312 114.125 68.722656 115.714844 66.726562 C 118.136719 68.203125 124.34375 71.972656 130.484375 75.480469 C 130.710938 75.609375 130.953125 75.671875 131.199219 75.671875 C 131.695312 75.671875 132.179688 75.410156 132.449219 74.945312 C 132.84375 74.257812 132.601562 73.378906 131.910156 72.984375 C 125.957031 69.578125 119.929688 65.929688 117.402344 64.386719 C 120.023438 60.207031 120.316406 56.53125 118.3125 53.164062 C 116.902344 50.785156 115.492188 49.457031 114.359375 48.691406 C 116.453125 46.125 116.476562 43.105469 114.378906 39.523438 C 113.351562 37.761719 112.042969 35.941406 110.332031 34.933594 C 111.25 33.507812 111.628906 31.46875 111.320312 29.167969 C 110.921875 26.1875 109.300781 22.441406 105.941406 20.863281 C 105.476562 20.644531 104.929688 20.519531 104.355469 20.433594 C 105.296875 18.265625 105.691406 15.183594 103.761719 11.792969 C 99.941406 5.070312 90.671875 6.375 84.117188 8.023438 C 82.390625 6.003906 77.535156 0.730469 73.480469 0.328125 C 70.804688 0.0585938 67.664062 2.117188 66.253906 3.171875 C 61.023438 0.484375 56.515625 1.117188 54.796875 1.535156 C 52.15625 2.175781 49.59375 4.113281 46.875 6.160156 C 44.144531 8.226562 41.316406 10.359375 38.757812 10.75 C 36.640625 11.078125 35.132812 11.972656 34.273438 13.410156 C 33.75 14.289062 33.570312 15.210938 33.542969 16.019531 C 31.304688 15.644531 27.820312 15.671875 25.015625 18.472656 C 22.84375 20.644531 20.425781 24.390625 20.753906 27.808594 C 20.832031 28.621094 21.082031 29.363281 21.457031 30.039062 C 19.761719 30.617188 18.3125 31.640625 17.25 33.273438 C 14.863281 36.941406 14.007812 39.761719 14.566406 42.148438 C 14.875 43.492188 15.632812 44.652344 16.828125 45.679688 C 16.710938 45.78125 16.554688 45.851562 16.449219 45.964844 C 14.417969 48.210938 13.386719 51.65625 13.9375 54.34375 C 14.089844 55.089844 14.390625 55.742188 14.769531 56.328125 C 10.960938 59.414062 10.808594 64.445312 11.472656 67.582031 L 0.929688 74.53125 C 0.269531 74.96875 0.0859375 75.859375 0.523438 76.523438 C 0.800781 76.941406 1.257812 77.171875 1.722656 77.171875 C 1.996094 77.171875 2.269531 77.09375 2.515625 76.933594 L 13.605469 69.621094 C 13.863281 69.523438 14.089844 69.367188 14.242188 69.101562 C 14.257812 69.09375 15.378906 68.078125 20.03125 69.074219 C 23.15625 69.734375 25.769531 69.324219 27.816406 67.847656 C 29.726562 66.472656 30.660156 64.496094 31.113281 63.074219 C 32.617188 63.558594 33.996094 63.789062 35.183594 63.789062 C 36.78125 63.789062 38.0625 63.425781 38.945312 62.898438 C 40.074219 62.21875 43.503906 58.417969 43.21875 54.535156 C 43.175781 53.945312 43.03125 53.269531 42.714844 52.589844 C 44.15625 52.261719 45.84375 51.433594 47.039062 49.429688 C 49.179688 45.835938 48.964844 42.535156 46.472656 39.433594 C 50.894531 37.367188 51.726562 32.238281 51.484375 29.628906 C 51.40625 28.839844 50.683594 28.261719 49.917969 28.332031 C 49.125 28.40625 48.542969 29.105469 48.617188 29.898438 C 48.621094 29.953125 49.101562 35.679688 44.65625 37.121094 C 44.539062 37.15625 44.449219 37.230469 44.351562 37.292969 C 43.476562 36.554688 42.511719 35.824219 41.355469 35.109375 C 36.175781 31.902344 29.839844 29.3125 24.714844 29.46875 C 24.09375 28.949219 23.695312 28.328125 23.617188 27.535156 C 23.402344 25.28125 25.246094 22.3125 27.046875 20.507812 C 29.480469 18.078125 32.78125 18.699219 34.105469 19.082031 C 35.128906 22.070312 38.234375 26.652344 44.441406 26.769531 C 44.527344 26.773438 44.609375 26.773438 44.695312 26.773438 C 48.363281 26.773438 51.125 25.28125 53.570312 23.964844 C 56.546875 22.355469 58.347656 21.5 60.660156 22.617188 C 61.136719 22.847656 61.710938 22.796875 62.136719 22.480469 C 62.253906 22.394531 73.699219 13.972656 81.148438 11.820312 C 89.765625 9.328125 98.167969 7.769531 101.261719 13.214844 C 103.285156 16.769531 101.777344 19.476562 101.058594 20.460938 C 95.527344 21.179688 88.546875 24.503906 87.53125 25 C 86.816406 25.347656 86.519531 26.210938 86.871094 26.921875 C 87.21875 27.640625 88.078125 27.933594 88.792969 27.585938 C 92.25 25.902344 97.75 23.761719 101.515625 23.273438 C 101.777344 23.320312 102.039062 23.316406 102.285156 23.21875 C 103.273438 23.152344 104.136719 23.195312 104.714844 23.46875 C 107.03125 24.554688 108.183594 27.421875 108.46875 29.550781 C 108.71875 31.429688 108.363281 33.140625 107.582031 33.804688 C 107.460938 33.910156 107.375 34.039062 107.296875 34.171875 C 106.722656 34.203125 106.125 34.300781 105.480469 34.53125 C 102.453125 35.609375 95.847656 39.183594 95.566406 39.335938 C 94.871094 39.710938 94.609375 40.585938 94.988281 41.285156 C 95.367188 41.988281 96.242188 42.238281 96.9375 41.863281 C 97.007812 41.828125 103.628906 38.246094 106.445312 37.238281 C 108.15625 36.625 109.59375 37.039062 111.898438 40.972656 C 113.828125 44.277344 113.449219 46.285156 110.496094 48.386719 C 107.414062 50.585938 99.347656 55.207031 99.269531 55.253906 C 98.578125 55.648438 98.335938 56.527344 98.734375 57.214844 C 98.996094 57.679688 99.484375 57.941406 99.980469 57.941406 C 100.226562 57.941406 100.46875 57.878906 100.695312 57.75 C 101.03125 57.558594 108.964844 53.011719 112.167969 50.730469 C 112.878906 51.074219 114.292969 52.023438 115.839844 54.632812 C 117.507812 57.4375 118.078125 61.820312 107.621094 70.894531 C 106.578125 71.800781 105.382812 72.890625 104.042969 74.113281 C 95.757812 81.675781 81.898438 94.335938 66.214844 97.019531 C 65.996094 97.054688 65.777344 97.121094 65.558594 97.164062 C 65.46875 97.175781 65.382812 97.191406 65.296875 97.222656 C 56.453125 98.972656 47.816406 104.039062 37.863281 109.910156 C 27.453125 116.054688 15.648438 123.019531 1.316406 127.265625 C 0.554688 127.492188 0.117188 128.289062 0.34375 129.054688 C 0.527344 129.679688 1.101562 130.082031 1.722656 130.082031 C 1.859375 130.082031 1.996094 130.066406 2.128906 130.023438 C 16.804688 125.679688 28.769531 118.617188 39.328125 112.386719 C 49.035156 106.660156 57.460938 101.71875 65.808594 100.050781 C 68.09375 100.488281 82.144531 103.214844 87.691406 105.140625 C 99.222656 109.152344 108.488281 116.214844 117.449219 123.042969 C 121.632812 126.226562 125.957031 129.523438 130.40625 132.417969 C 130.648438 132.574219 130.921875 132.648438 131.191406 132.648438 C 131.660156 132.648438 132.121094 132.417969 132.394531 131.992188 C 132.828125 131.328125 132.640625 130.4375 131.972656 130.003906 Z M 26.117188 65.527344 C 24.757812 66.496094 22.90625 66.742188 20.632812 66.257812 C 17.503906 65.59375 15.460938 65.683594 14.140625 66.039062 C 13.875 63.890625 14.007812 60.308594 16.976562 58.25 C 17.050781 58.28125 17.121094 58.308594 17.195312 58.324219 C 17.265625 58.34375 24.191406 59.957031 28.441406 61.996094 C 28.148438 63 27.496094 64.542969 26.117188 65.527344 Z M 37.464844 60.429688 C 36.515625 61 33.847656 61.445312 29.902344 59.5 C 25.6875 57.429688 19.140625 55.828125 18.003906 55.558594 C 17.339844 55.214844 16.929688 54.628906 16.757812 53.765625 C 16.390625 51.976562 17.175781 49.453125 18.585938 47.898438 C 19.195312 47.21875 22.40625 45.496094 37.746094 51.871094 C 40.183594 52.886719 40.304688 54.246094 40.347656 54.695312 C 40.554688 57.023438 38.148438 59.988281 37.464844 60.429688 Z M 39.835938 37.554688 C 47.824219 42.496094 45.621094 46.183594 44.566406 47.953125 C 43.152344 50.324219 40.46875 49.894531 40.359375 49.878906 L 40.339844 50 C 39.902344 49.722656 39.425781 49.453125 38.851562 49.214844 C 29.753906 45.433594 23.546875 43.878906 19.761719 44.4375 L 19.835938 44.3125 C 18.398438 43.453125 17.613281 42.558594 17.367188 41.5 C 17.007812 39.945312 17.757812 37.769531 19.664062 34.839844 C 22.773438 30.054688 32.300781 32.886719 39.835938 37.554688 Z M 61.09375 19.683594 C 57.726562 18.460938 54.914062 19.964844 52.207031 21.429688 C 49.902344 22.671875 47.386719 23.929688 44.496094 23.894531 C 38.269531 23.777344 36.710938 17.851562 36.605469 17.460938 C 36.597656 17.445312 36.109375 15.949219 36.746094 14.882812 C 37.140625 14.21875 37.964844 13.785156 39.195312 13.59375 C 42.46875 13.09375 45.589844 10.738281 48.609375 8.457031 C 51.082031 6.59375 53.414062 4.832031 55.476562 4.332031 C 56.179688 4.160156 57.160156 3.996094 58.351562 3.996094 C 61.890625 3.996094 67.269531 5.445312 72.539062 12.453125 C 67.527344 15.15625 62.808594 18.453125 61.09375 19.683594 Z M 75.109375 11.136719 C 75.070312 11.054688 75.023438 10.972656 74.960938 10.894531 C 72.96875 8.207031 70.921875 6.246094 68.925781 4.808594 C 70.3125 3.910156 72.019531 3.085938 73.195312 3.191406 C 75.355469 3.40625 78.671875 6.324219 81.011719 8.867188 C 80.792969 8.929688 80.558594 8.996094 80.351562 9.054688 C 78.710938 9.53125 76.921875 10.265625 75.109375 11.136719 Z M 75.109375 11.136719 " fill-opacity="1" fill-rule="nonzero"/></svg>