<svg xmlns="http://www.w3.org/2000/svg" xmlns:xlink="http://www.w3.org/1999/xlink" width="136" zoomAndPan="magnify" viewBox="0 0 102 127.500001" height="170" preserveAspectRatio="xMidYMid meet" version="1.0"><defs><clipPath id="fc8f006b5f"><path d="M 2 3.425781 L 95 3.425781 L 95 48 L 2 48 Z M 2 3.425781 " clip-rule="nonzero"/></clipPath><clipPath id="0a2de971ec"><path d="M 0.199219 19 L 63 19 L 63 48 L 0.199219 48 Z M 0.199219 19 " clip-rule="nonzero"/></clipPath><clipPath id="f2ef7ca97c"><path d="M 7 82 L 100 82 L 100 126.78125 L 7 126.78125 Z M 7 82 " clip-rule="nonzero"/></clipPath></defs><g clip-path="url(#fc8f006b5f)"><path fill="#fce7e4" d="M 86.144531 47.933594 C 86.429688 47.933594 86.71875 47.933594 87.007812 47.933594 C 89.21875 47.742188 91.140625 46.589844 92.488281 44.859375 C 95.179688 41.398438 94.507812 36.304688 91.046875 33.417969 L 56.246094 5.15625 C 54.710938 3.90625 52.691406 3.425781 50.863281 4.003906 C 50.863281 4.003906 50.769531 4.003906 50.769531 4.003906 L 19.335938 15.15625 L 18.949219 15.25 C 17.507812 15.730469 16.160156 16.210938 15.199219 15.636719 L 5.105469 10.15625 C 4.144531 9.675781 2.992188 9.964844 2.511719 10.925781 C 2.03125 11.886719 2.320312 13.039062 3.28125 13.519531 L 13.277344 19 C 15.585938 20.441406 18.085938 19.578125 20.101562 18.902344 L 51.921875 7.65625 C 52.59375 7.464844 53.265625 7.65625 53.746094 8.136719 L 88.546875 36.398438 C 90.371094 37.9375 90.757812 40.726562 89.316406 42.457031 C 88.640625 43.320312 87.585938 43.898438 86.527344 44.089844 C 85.375 44.183594 84.316406 43.898438 83.453125 43.128906 L 66.820312 28.996094 C 66.726562 30.535156 66.4375 31.882812 65.859375 33.128906 L 81.144531 46.011719 C 82.492188 47.261719 84.316406 47.933594 86.144531 47.933594 Z M 86.144531 47.933594 " fill-opacity="1" fill-rule="nonzero"/></g><g clip-path="url(#0a2de971ec)"><path fill="#fce7e4" d="M 1.839844 37.457031 L 19.140625 46.878906 C 19.238281 46.972656 19.429688 46.972656 19.527344 47.070312 C 21.066406 47.550781 22.21875 47.742188 23.179688 47.742188 C 23.46875 47.742188 23.851562 47.742188 24.140625 47.644531 C 24.238281 47.644531 24.332031 47.644531 24.429688 47.550781 L 54.613281 37.550781 C 58.746094 36.589844 62.976562 33.035156 62.976562 28.515625 C 62.976562 25.921875 61.917969 23.519531 59.996094 21.882812 C 58.074219 20.25 55.574219 19.480469 53.074219 19.769531 C 52.980469 19.769531 52.882812 19.769531 52.785156 19.863281 L 34.042969 25.535156 C 32.984375 25.824219 32.40625 26.882812 32.792969 27.941406 C 33.175781 28.996094 34.136719 29.574219 35.195312 29.1875 L 53.746094 23.519531 C 55.09375 23.421875 56.441406 23.804688 57.402344 24.671875 C 58.457031 25.632812 59.132812 26.976562 59.132812 28.421875 C 59.132812 30.632812 56.632812 33.128906 53.652344 33.707031 C 53.554688 33.707031 53.554688 33.707031 53.460938 33.804688 L 23.46875 43.898438 C 23.371094 43.898438 23.371094 43.898438 23.277344 43.898438 C 23.277344 43.898438 23.277344 43.898438 23.179688 43.898438 C 23.082031 43.898438 23.082031 43.898438 22.988281 43.898438 C 22.988281 43.898438 22.890625 43.898438 22.890625 43.898438 C 22.792969 43.898438 22.792969 43.898438 22.699219 43.898438 C 22.699219 43.898438 22.601562 43.898438 22.601562 43.898438 C 22.507812 43.898438 22.507812 43.898438 22.410156 43.898438 C 22.410156 43.898438 22.3125 43.898438 22.3125 43.898438 C 22.21875 43.898438 22.121094 43.898438 22.027344 43.800781 C 22.027344 43.800781 21.929688 43.800781 21.929688 43.800781 C 21.832031 43.800781 21.738281 43.800781 21.640625 43.703125 C 21.640625 43.703125 21.546875 43.703125 21.546875 43.703125 C 21.449219 43.703125 21.351562 43.609375 21.160156 43.609375 C 21.160156 43.609375 21.066406 43.609375 21.066406 43.609375 C 20.96875 43.609375 20.871094 43.511719 20.777344 43.511719 L 3.664062 34.09375 C 2.703125 33.609375 1.550781 33.898438 1.070312 34.859375 C 0.492188 35.820312 0.878906 36.976562 1.839844 37.457031 Z M 1.839844 37.457031 " fill-opacity="1" fill-rule="nonzero"/></g><g clip-path="url(#f2ef7ca97c)"><path fill="#fce7e4" d="M 10.492188 97.054688 L 45.289062 125.316406 C 46.347656 126.183594 47.691406 126.757812 49.132812 126.757812 C 49.613281 126.757812 50.191406 126.664062 50.671875 126.566406 C 50.671875 126.566406 50.769531 126.566406 50.769531 126.566406 L 82.203125 115.320312 L 82.585938 115.222656 C 84.027344 114.742188 85.375 114.261719 86.335938 114.839844 L 96.429688 120.320312 C 97.390625 120.800781 98.542969 120.511719 99.023438 119.550781 C 99.503906 118.589844 99.214844 117.433594 98.253906 116.953125 L 88.257812 111.476562 C 85.949219 110.03125 83.453125 110.898438 81.433594 111.570312 L 49.613281 122.914062 C 48.941406 123.105469 48.269531 122.914062 47.789062 122.433594 L 12.988281 94.074219 C 11.164062 92.539062 10.777344 89.75 12.21875 88.019531 C 12.894531 87.15625 13.949219 86.578125 15.007812 86.386719 C 16.160156 86.289062 17.21875 86.578125 18.085938 87.347656 L 34.8125 101.476562 C 34.90625 99.941406 35.195312 98.59375 35.773438 97.34375 L 20.488281 84.367188 C 18.855469 82.925781 16.738281 82.347656 14.527344 82.539062 C 12.316406 82.734375 10.394531 83.886719 9.046875 85.617188 C 6.453125 89.078125 7.03125 94.171875 10.492188 97.054688 Z M 10.492188 97.054688 " fill-opacity="1" fill-rule="nonzero"/></g><path fill="#fce7e4" d="M 100.5625 95.613281 C 101.042969 94.652344 100.753906 93.5 99.792969 93.019531 L 82.492188 83.597656 C 82.296875 83.5 82.203125 83.5 82.007812 83.5 C 79.894531 82.925781 78.644531 82.636719 77.300781 82.828125 C 77.203125 82.828125 77.105469 82.828125 77.011719 82.925781 L 46.921875 92.921875 C 42.789062 93.882812 38.558594 97.441406 38.558594 101.957031 C 38.558594 104.554688 39.617188 106.957031 41.539062 108.589844 C 43.175781 110.03125 45.191406 110.707031 47.308594 110.707031 C 47.691406 110.707031 48.078125 110.707031 48.460938 110.609375 C 48.558594 110.609375 48.652344 110.609375 48.75 110.515625 L 67.496094 104.84375 C 68.550781 104.554688 69.128906 103.496094 68.742188 102.4375 C 68.457031 101.382812 67.398438 100.804688 66.339844 101.1875 L 47.789062 106.859375 C 46.441406 106.957031 45.097656 106.574219 44.136719 105.707031 C 43.078125 104.746094 42.40625 103.398438 42.40625 101.957031 C 42.40625 99.746094 44.902344 97.25 47.882812 96.671875 C 47.980469 96.671875 47.980469 96.671875 48.078125 96.574219 L 78.070312 86.578125 C 78.164062 86.578125 78.355469 86.578125 78.550781 86.578125 C 78.644531 86.578125 78.742188 86.578125 78.835938 86.578125 C 78.933594 86.578125 79.03125 86.578125 79.125 86.578125 C 79.125 86.578125 79.222656 86.578125 79.222656 86.578125 C 79.316406 86.578125 79.414062 86.578125 79.511719 86.675781 C 79.511719 86.675781 79.605469 86.675781 79.605469 86.675781 C 79.703125 86.675781 79.796875 86.675781 79.894531 86.769531 C 79.992188 86.769531 79.992188 86.769531 80.085938 86.769531 C 80.183594 86.769531 80.28125 86.867188 80.375 86.867188 C 80.472656 86.867188 80.472656 86.867188 80.566406 86.867188 C 80.664062 86.867188 80.761719 86.867188 80.855469 86.960938 L 97.96875 96.191406 C 98.832031 96.863281 99.984375 96.574219 100.5625 95.613281 Z M 100.5625 95.613281 " fill-opacity="1" fill-rule="nonzero"/><path fill="#fce7e4" d="M 55.191406 84.078125 C 54.230469 85.039062 53.363281 86 52.402344 87.058594 L 60.1875 84.464844 C 62.976562 81.484375 65.765625 78.503906 68.457031 74.851562 C 72.683594 69.082031 74.03125 63.410156 72.398438 57.835938 C 70.761719 52.066406 66.148438 48.222656 60.765625 47.933594 C 56.535156 47.644531 52.882812 50.242188 50.382812 53.316406 C 47.882812 50.242188 44.230469 47.742188 39.90625 47.933594 C 34.523438 48.222656 29.910156 52.066406 28.179688 57.738281 C 26.449219 63.316406 27.792969 69.082031 32.023438 74.851562 C 35.484375 79.464844 38.945312 83.019531 42.597656 86.867188 C 43.460938 87.730469 44.328125 88.597656 45.097656 89.558594 C 45.386719 89.460938 45.578125 89.367188 45.867188 89.367188 L 49.132812 88.308594 C 47.789062 86.960938 46.539062 85.617188 45.289062 84.269531 C 41.730469 80.617188 38.367188 77.0625 35.097656 72.640625 C 31.542969 67.929688 30.484375 63.410156 31.832031 58.988281 C 33.082031 54.855469 36.347656 52.066406 40.097656 51.875 C 43.75 51.683594 46.921875 54.855469 48.652344 57.644531 C 48.75 57.738281 48.84375 57.835938 48.941406 57.933594 C 49.039062 58.027344 49.132812 58.125 49.230469 58.125 C 49.230469 58.125 49.230469 58.125 49.324219 58.125 C 49.324219 58.125 49.421875 58.21875 49.421875 58.21875 C 49.421875 58.21875 49.519531 58.21875 49.613281 58.316406 C 49.613281 58.316406 49.710938 58.316406 49.710938 58.316406 C 49.808594 58.316406 49.902344 58.414062 49.902344 58.414062 C 49.902344 58.414062 50 58.414062 50 58.414062 C 50.09375 58.414062 50.191406 58.414062 50.191406 58.414062 C 50.289062 58.414062 50.289062 58.414062 50.382812 58.414062 C 50.480469 58.414062 50.480469 58.414062 50.574219 58.414062 C 50.671875 58.414062 50.769531 58.414062 50.769531 58.414062 C 50.769531 58.414062 50.863281 58.414062 50.863281 58.414062 C 50.960938 58.414062 51.054688 58.316406 51.054688 58.316406 C 51.054688 58.316406 51.152344 58.316406 51.152344 58.316406 C 51.25 58.316406 51.25 58.316406 51.34375 58.21875 C 51.34375 58.21875 51.441406 58.125 51.441406 58.125 C 51.441406 58.125 51.441406 58.125 51.535156 58.125 C 51.632812 58.027344 51.730469 58.027344 51.824219 57.933594 C 51.921875 57.835938 52.019531 57.738281 52.113281 57.644531 C 53.84375 54.855469 57.113281 51.585938 60.667969 51.875 C 64.417969 52.066406 67.6875 54.855469 68.9375 58.988281 C 70.28125 63.410156 69.226562 67.832031 65.667969 72.640625 C 62.109375 76.964844 58.746094 80.425781 55.191406 84.078125 Z M 55.191406 84.078125 " fill-opacity="1" fill-rule="nonzero"/></svg>