<svg xmlns="http://www.w3.org/2000/svg" xmlns:xlink="http://www.w3.org/1999/xlink" width="972" zoomAndPan="magnify" viewBox="0 0 729 168.749997" height="225" preserveAspectRatio="xMidYMid meet" version="1.0"><defs><clipPath id="06644341b6"><path d="M 1 2 L 728 2 L 728 168.5 L 1 168.5 Z M 1 2 " clip-rule="nonzero"/></clipPath></defs><g clip-path="url(#06644341b6)"><path fill="#231f20" d="M 295.1875 168.519531 C 294.289062 168.519531 293.234375 167.988281 292.726562 166.464844 C 291.46875 162.691406 292.753906 157.769531 296.324219 152.152344 C 296.722656 150.257812 297.394531 148.304688 298.492188 146.398438 C 303.601562 137.523438 310.570312 130.132812 317.3125 122.988281 C 323.597656 116.324219 329.535156 110.03125 333.746094 102.871094 C 336.886719 97.53125 337.1875 92.460938 334.492188 90.253906 C 331.851562 88.09375 325.582031 88.433594 316.605469 96.511719 C 309.832031 102.605469 302.839844 108.125 296.671875 113 C 282.730469 124.007812 271.722656 132.703125 269.382812 142.183594 C 268.496094 145.78125 268.117188 148.433594 268.117188 151.050781 C 268.117188 151.617188 268.117188 153.339844 266.984375 153.839844 C 266.546875 154.03125 265.839844 154.089844 264.953125 153.277344 C 262.347656 150.882812 258.886719 141.460938 261.855469 132.734375 C 264.738281 124.246094 274.839844 117.457031 284.613281 110.890625 C 290.261719 107.097656 295.597656 103.511719 299.351562 99.757812 C 303.753906 95.359375 304.097656 90.441406 302.167969 87.855469 C 300.289062 85.347656 295.636719 84.117188 288.199219 88.191406 C 282.539062 91.289062 277.203125 93.832031 272.039062 96.289062 C 257.484375 103.222656 245.984375 108.695312 240.546875 120.863281 C 239.90625 122.300781 239.304688 124.027344 238.722656 125.691406 C 237.214844 130.015625 235.914062 133.75 233.625 133.871094 C 232.167969 133.949219 230.871094 132.617188 229.433594 129.554688 C 226.671875 123.683594 221.105469 119.085938 212.40625 115.5 C 201.042969 110.8125 184.292969 107.992188 162.617188 107.113281 C 125.601562 105.613281 97.058594 108.207031 71.878906 110.492188 C 48.34375 112.628906 26.113281 114.648438 1.042969 112.992188 L 1.15625 111.269531 C 26.089844 112.914062 48.253906 110.902344 71.722656 108.773438 C 96.957031 106.480469 125.558594 103.882812 162.6875 105.386719 C 201.988281 106.980469 224.332031 114.644531 230.996094 128.820312 C 232.503906 132.03125 233.378906 132.160156 233.535156 132.144531 C 234.667969 132.085938 236.128906 127.898438 237.09375 125.125 C 237.6875 123.421875 238.300781 121.664062 238.972656 120.160156 C 244.667969 107.410156 256.421875 101.816406 271.300781 94.730469 C 276.4375 92.28125 281.753906 89.753906 287.371094 86.675781 C 295.773438 82.070312 301.238281 83.730469 303.546875 86.820312 C 306.367188 90.589844 305.144531 96.414062 300.570312 100.980469 C 296.699219 104.855469 291.296875 108.484375 285.574219 112.328125 C 276.042969 118.730469 266.183594 125.355469 263.488281 133.289062 C 261.117188 140.269531 263.242188 147.230469 264.871094 150.246094 C 265.5 151.40625 266.007812 151.9375 266.277344 152.136719 C 266.332031 151.960938 266.394531 151.628906 266.394531 151.050781 C 266.394531 148.285156 266.785156 145.511719 267.707031 141.769531 C 270.1875 131.714844 281.402344 122.855469 295.601562 111.640625 C 302.050781 106.550781 308.722656 101.285156 315.453125 95.226562 C 325.230469 86.425781 332.265625 86.199219 335.585938 88.914062 C 339.019531 91.726562 338.878906 97.546875 335.234375 103.75 C 330.921875 111.074219 324.921875 117.4375 318.566406 124.175781 C 312.019531 131.113281 305.253906 138.285156 300.273438 146.769531 C 302.875 143.617188 306.082031 140.3125 309.859375 136.917969 C 319.566406 128.191406 326.832031 123.46875 342.296875 114 C 349.257812 109.734375 353.695312 110.902344 355.527344 113.414062 C 357.976562 116.777344 356.691406 123.71875 349.476562 129.945312 C 340.425781 137.757812 339.425781 142.007812 340.179688 144.195312 C 341.054688 146.742188 344.996094 148.3125 351.273438 148.613281 C 353.777344 148.734375 356.183594 148.84375 358.53125 148.949219 C 370.535156 149.488281 380.902344 149.957031 394.074219 151.558594 C 415.527344 154.167969 421.121094 150.917969 427.039062 147.476562 C 427.382812 147.277344 427.726562 147.074219 428.078125 146.875 C 435.628906 142.542969 440.3125 142.855469 445.730469 143.214844 C 448.75 143.414062 451.867188 143.621094 455.859375 143.035156 C 460.3125 142.378906 462.945312 140.175781 465.988281 137.621094 C 470.039062 134.226562 474.625 130.382812 484.609375 128.921875 C 496.039062 127.246094 499.59375 121.421875 500.695312 118.097656 C 500.972656 117.257812 501.152344 116.398438 501.242188 115.535156 C 498.050781 115.234375 494.792969 114.707031 491.148438 113.855469 C 486.023438 112.660156 485.007812 110.226562 484.863281 108.882812 C 484.621094 106.664062 486.3125 104.28125 489.074219 102.957031 C 491.824219 101.636719 495.878906 101.335938 499.003906 104.464844 C 501.53125 106.996094 502.9375 110.433594 503.023438 113.949219 C 508.742188 114.359375 514.417969 114.085938 521.90625 113.726562 C 524.597656 113.597656 527.644531 113.453125 530.964844 113.328125 C 534.402344 113.199219 537.582031 113.199219 540.644531 113.199219 C 540.855469 113.199219 541.066406 113.199219 541.273438 113.199219 C 552.519531 113.199219 560.671875 113.070312 565.996094 105.882812 C 567.332031 104.078125 567.726562 102.523438 567.195312 101.128906 C 565.292969 96.125 551.820312 92.933594 539.339844 90.335938 C 536.617188 89.769531 534.03125 89.238281 531.558594 88.730469 C 509.277344 84.160156 495.828125 81.398438 476.402344 71.144531 C 471.410156 68.507812 465.828125 64.1875 459.917969 59.609375 C 454.914062 55.738281 449.566406 51.597656 444.0625 48.097656 C 443.417969 48.195312 442.769531 48.292969 442.125 48.382812 C 441.082031 48.558594 440.035156 48.699219 438.984375 48.800781 C 431.3125 49.746094 423.582031 50.171875 415.535156 49.925781 C 396.285156 49.328125 376.214844 43.234375 358.402344 35.675781 C 357.765625 35.980469 357.113281 36.289062 356.449219 36.609375 C 331.421875 48.574219 317.613281 52.878906 301.960938 52.878906 C 299.480469 52.878906 296.953125 52.769531 294.328125 52.566406 C 280.175781 51.476562 266.882812 47.472656 259.101562 42.261719 C 256.808594 48.207031 250.316406 56.371094 233.511719 65.21875 C 224.078125 70.1875 216.566406 71.085938 211.925781 70.964844 C 206.039062 70.808594 201.441406 68.957031 199.3125 65.878906 C 197.074219 62.644531 198.046875 58.65625 201.914062 55.210938 C 217.167969 41.605469 225.734375 31.914062 231.402344 25.5 C 234.773438 21.683594 237.207031 18.929688 239.511719 17.070312 C 243.488281 13.867188 249.550781 12.429688 260.550781 9.820312 C 266.8125 8.335938 274.605469 6.488281 284.53125 3.722656 C 297.867188 0.0117188 303.164062 3.320312 317.320312 12.160156 C 327.3125 18.398438 341.835938 26.707031 358.359375 33.78125 C 385.605469 20.804688 390.308594 19.496094 412.835938 17.328125 C 433.367188 15.351562 445.746094 12.703125 458.851562 9.902344 C 460.3125 9.589844 461.777344 9.273438 463.261719 8.960938 C 481.019531 5.203125 494.929688 8.503906 504.601562 18.769531 C 509.390625 23.847656 511.214844 27.007812 510.601562 29.207031 C 523.558594 25.515625 537.8125 21.683594 553.726562 18.222656 C 612.890625 5.359375 660.957031 7.144531 699.578125 8.574219 C 709.554688 8.945312 718.972656 9.292969 727.957031 9.382812 L 727.941406 11.109375 C 718.933594 11.023438 709.5 10.671875 699.515625 10.300781 C 660.992188 8.871094 613.042969 7.09375 554.09375 19.914062 C 532.015625 24.714844 513.125 30.234375 496.460938 35.101562 C 478.265625 40.417969 462.386719 45.058594 446.609375 47.691406 C 451.597656 50.988281 456.425781 54.722656 460.972656 58.246094 C 466.824219 62.773438 472.347656 67.050781 477.207031 69.613281 C 496.417969 79.757812 509.773438 82.5 531.90625 87.039062 C 534.378906 87.546875 536.96875 88.078125 539.695312 88.648438 C 556.1875 92.082031 566.8125 95.265625 568.808594 100.515625 C 569.554688 102.476562 569.074219 104.628906 567.382812 106.914062 C 561.441406 114.933594 552.257812 114.921875 540.644531 114.925781 C 537.589844 114.925781 534.433594 114.925781 531.03125 115.054688 C 527.71875 115.179688 524.675781 115.324219 521.988281 115.453125 C 514.457031 115.816406 508.734375 116.089844 502.960938 115.679688 C 502.863281 116.679688 502.65625 117.671875 502.332031 118.640625 C 500.246094 124.941406 493.878906 129.3125 484.859375 130.628906 C 475.359375 132.019531 470.96875 135.699219 467.097656 138.945312 C 463.988281 141.554688 461.046875 144.019531 456.113281 144.746094 C 451.9375 145.359375 448.578125 145.136719 445.617188 144.9375 C 440.476562 144.597656 436.035156 144.300781 428.9375 148.375 C 428.589844 148.574219 428.246094 148.773438 427.90625 148.972656 C 421.730469 152.5625 415.894531 155.953125 393.867188 153.273438 C 380.761719 151.679688 370.425781 151.214844 358.453125 150.675781 C 356.105469 150.570312 353.695312 150.460938 351.191406 150.339844 C 344.058594 149.996094 339.6875 148.066406 338.546875 144.757812 C 337.199219 140.839844 340.496094 135.417969 348.351562 128.636719 C 354.550781 123.285156 356.15625 117.214844 354.132812 114.433594 C 352.375 112.019531 348.183594 112.421875 343.195312 115.472656 C 327.5 125.085938 320.65625 129.535156 311.011719 138.207031 C 305.273438 143.363281 300.855469 148.34375 297.960938 152.8125 C 297.253906 156.488281 297.636719 159.96875 297.902344 162.371094 C 298.046875 163.667969 298.160156 164.695312 298.074219 165.414062 C 297.875 167.097656 296.785156 168.371094 295.417969 168.511719 C 295.339844 168.515625 295.265625 168.519531 295.1875 168.519531 Z M 295.835938 156.550781 C 294.066406 160.21875 293.53125 163.417969 294.363281 165.917969 C 294.457031 166.199219 294.730469 166.84375 295.238281 166.789062 C 295.699219 166.742188 296.246094 166.171875 296.359375 165.210938 C 296.421875 164.6875 296.3125 163.699219 296.1875 162.558594 C 296.007812 160.941406 295.78125 158.863281 295.835938 156.550781 Z M 493.140625 103.742188 C 491.9375 103.742188 490.78125 104.050781 489.820312 104.511719 C 487.75 105.507812 486.417969 107.226562 486.578125 108.691406 C 486.746094 110.230469 488.507812 111.464844 491.539062 112.171875 C 495.050781 112.992188 498.207031 113.503906 501.296875 113.800781 C 501.175781 110.789062 499.953125 107.855469 497.785156 105.683594 C 496.375 104.273438 494.714844 103.742188 493.140625 103.742188 Z M 293.964844 3.945312 C 291.332031 3.945312 288.460938 4.421875 284.996094 5.386719 C 275.039062 8.160156 267.226562 10.011719 260.949219 11.5 C 250.191406 14.050781 244.269531 15.457031 240.59375 18.417969 C 238.40625 20.179688 236.007812 22.890625 232.695312 26.644531 C 227 33.085938 218.394531 42.824219 203.0625 56.5 C 199.863281 59.351562 199.011719 62.410156 200.730469 64.890625 C 202.519531 67.476562 206.71875 69.097656 211.972656 69.234375 C 216.40625 69.347656 223.605469 68.480469 232.707031 63.691406 C 243.375 58.070312 250.894531 52.179688 255.050781 46.179688 C 256.300781 44.375 257.128906 42.71875 257.664062 41.234375 C 256.261719 40.171875 255.09375 39.0625 254.1875 37.921875 C 252.472656 35.765625 251.765625 33.59375 252.082031 31.464844 C 252.34375 29.734375 253.332031 28.648438 254.730469 28.558594 C 256.539062 28.453125 258.875 30.140625 259.839844 33.59375 C 260.199219 34.871094 260.566406 37.304688 259.660156 40.574219 C 267.058594 45.742188 280.289062 49.75 294.460938 50.84375 C 313.296875 52.300781 327.035156 48.757812 355.707031 35.046875 C 355.90625 34.953125 356.101562 34.859375 356.292969 34.769531 C 340.242188 27.785156 326.171875 19.722656 316.410156 13.625 C 306.207031 7.253906 300.910156 3.945312 293.964844 3.945312 Z M 360.492188 34.679688 C 377.773438 41.890625 397.085938 47.625 415.585938 48.195312 C 419.675781 48.324219 423.6875 48.273438 427.648438 48.066406 C 423.363281 46.890625 421.15625 44.648438 420.554688 42.902344 C 420.148438 41.730469 420.355469 40.582031 421.117188 39.753906 C 422.433594 38.335938 425.074219 38.050781 428.554688 38.960938 C 433.867188 40.347656 439.148438 42.988281 444.28125 46.191406 C 450.449219 44.820312 456.585938 42.28125 462.925781 39.660156 C 478.386719 33.269531 488.089844 31.574219 497.902344 30.996094 C 498.511719 30.960938 499.113281 30.925781 499.699219 30.894531 C 504.109375 30.660156 508.273438 30.4375 508.898438 28.875 C 509.285156 27.902344 508.636719 25.566406 503.347656 19.953125 C 494.117188 10.15625 480.746094 7.027344 463.617188 10.648438 C 462.136719 10.964844 460.671875 11.277344 459.210938 11.589844 C 446.058594 14.402344 433.632812 17.058594 413 19.042969 C 391.140625 21.148438 386.265625 22.4375 360.492188 34.679688 Z M 424.960938 40.167969 C 423.625 40.167969 422.78125 40.5 422.382812 40.929688 C 422.050781 41.289062 421.984375 41.761719 422.183594 42.339844 C 422.769531 44.035156 425.457031 46.085938 430.132812 46.835938 C 433.09375 47.308594 436.007812 47.347656 438.90625 47.066406 C 439.847656 46.949219 440.785156 46.824219 441.726562 46.691406 C 441.742188 46.691406 441.753906 46.6875 441.769531 46.683594 C 437.277344 44.003906 432.691406 41.828125 428.121094 40.632812 C 426.859375 40.304688 425.8125 40.167969 424.960938 40.167969 Z M 498.558594 32.6875 C 498.375 32.699219 498.191406 32.710938 498.003906 32.71875 C 488.367188 33.289062 478.824219 34.957031 463.585938 41.257812 C 461.394531 42.164062 459.226562 43.058594 457.074219 43.902344 C 469.332031 41.226562 481.960938 37.539062 495.980469 33.441406 C 496.832031 33.191406 497.691406 32.941406 498.558594 32.6875 Z M 254.902344 30.28125 C 254.878906 30.28125 254.859375 30.285156 254.835938 30.285156 C 254.140625 30.328125 253.882812 31.089844 253.789062 31.722656 C 253.542969 33.359375 254.132812 35.082031 255.535156 36.847656 C 256.25 37.742188 257.136719 38.617188 258.1875 39.46875 C 258.746094 37.039062 258.496094 35.195312 258.179688 34.0625 C 257.449219 31.449219 255.820312 30.28125 254.902344 30.28125 Z M 254.902344 30.28125 " fill-opacity="1" fill-rule="nonzero"/></g></svg>