<svg xmlns="http://www.w3.org/2000/svg" xmlns:xlink="http://www.w3.org/1999/xlink" width="818" zoomAndPan="magnify" viewBox="0 0 613.5 305.999988" height="408" preserveAspectRatio="xMidYMid meet" version="1.0"><defs><filter x="0%" y="0%" width="100%" height="100%" id="30836774da"><feColorMatrix values="0 0 0 0 1 0 0 0 0 1 0 0 0 0 1 0 0 0 1 0" color-interpolation-filters="sRGB"/></filter><g/><clipPath id="30d906634c"><path d="M 0 0.125 L 613 0.125 L 613 305.875 L 0 305.875 Z M 0 0.125 " clip-rule="nonzero"/></clipPath><mask id="acb71e9f75"><g filter="url(#30836774da)"><rect x="-61.35" width="736.2" fill="#000000" y="-30.599999" height="367.199986" fill-opacity="0.22"/></g></mask><clipPath id="0bbe5aa217"><path d="M 0 0.125 L 612 0.125 L 612 305.726562 L 0 305.726562 Z M 0 0.125 " clip-rule="nonzero"/></clipPath><clipPath id="c3789b58a1"><rect x="0" width="613" y="0" height="306"/></clipPath><mask id="58c9fb2be1"><g filter="url(#30836774da)"><rect x="-61.35" width="736.2" fill="#000000" y="-30.599999" height="367.199986" fill-opacity="0.22"/></g></mask><clipPath id="5b24d6ac14"><rect x="0" width="14" y="0" height="82"/></clipPath></defs><g clip-path="url(#30d906634c)"><g mask="url(#acb71e9f75)"><g transform="matrix(1, 0, 0, 1, 0, 0.000000000000032835)"><g clip-path="url(#c3789b58a1)"><g clip-path="url(#0bbe5aa217)"><path fill="#ffc0b7" d="M 306.203125 0.0703125 C 390.726562 0.0703125 466.917969 34.296875 522.273438 89.65625 C 577.632812 145.011719 611.859375 221.5 611.859375 305.726562 C 512.75 305.726562 99.953125 305.726562 0.546875 305.726562 C 0.546875 221.5 34.773438 145.011719 90.128906 89.65625 C 145.484375 34.296875 221.976562 0.0703125 306.203125 0.0703125 Z M 306.203125 0.0703125 " fill-opacity="1" fill-rule="nonzero"/></g></g></g></g></g><g mask="url(#58c9fb2be1)"><g transform="matrix(1, 0, 0, 1, 94, 117)"><g clip-path="url(#5b24d6ac14)"><g fill="#ffc0b7" fill-opacity="1"><g transform="translate(0.790557, 61.034385)"><g><path d="M 6.03125 0.34375 C 5.039062 0.34375 4.203125 0.00390625 3.515625 -0.671875 C 2.835938 -1.359375 2.5 -2.195312 2.5 -3.1875 C 2.5 -4.164062 2.835938 -4.992188 3.515625 -5.671875 C 4.203125 -6.359375 5.039062 -6.703125 6.03125 -6.703125 C 6.96875 -6.703125 7.769531 -6.359375 8.4375 -5.671875 C 9.101562 -4.992188 9.4375 -4.164062 9.4375 -3.1875 C 9.4375 -2.195312 9.101562 -1.359375 8.4375 -0.671875 C 7.769531 0.00390625 6.96875 0.34375 6.03125 0.34375 Z M 6.03125 0.34375 "/></g></g></g></g></g></g></svg>