<svg xmlns="http://www.w3.org/2000/svg" xmlns:xlink="http://www.w3.org/1999/xlink" width="325" zoomAndPan="magnify" viewBox="0 0 243.75 156.749997" height="209" preserveAspectRatio="xMidYMid meet" version="1.0"><defs><filter x="0%" y="0%" width="100%" height="100%" id="c66e7a3d6e"><feColorMatrix values="0 0 0 0 1 0 0 0 0 1 0 0 0 0 1 0 0 0 1 0" color-interpolation-filters="sRGB"/></filter><clipPath id="2cd4ecdd7a"><path d="M 0.0703125 0 L 243.429688 0 L 243.429688 156.5 L 0.0703125 156.5 Z M 0.0703125 0 " clip-rule="nonzero"/></clipPath><clipPath id="e6d406cfb1"><path d="M 44 131 L 57 131 L 57 139 L 44 139 Z M 44 131 " clip-rule="nonzero"/></clipPath><clipPath id="39af400233"><path d="M 77.125 156.390625 L 0.640625 115.878906 L 62.25 -0.441406 L 138.734375 40.070312 Z M 77.125 156.390625 " clip-rule="nonzero"/></clipPath><clipPath id="e18e76e22d"><path d="M -130.171875 46.59375 L 76.976562 156.3125 L 138.585938 39.992188 L -68.558594 -69.726562 Z M -130.171875 46.59375 " clip-rule="nonzero"/></clipPath><clipPath id="4af69c8be3"><path d="M 60 85 L 74 85 L 74 111 L 60 111 Z M 60 85 " clip-rule="nonzero"/></clipPath><clipPath id="81fa72678f"><path d="M 77.125 156.390625 L 0.640625 115.878906 L 62.25 -0.441406 L 138.734375 40.070312 Z M 77.125 156.390625 " clip-rule="nonzero"/></clipPath><clipPath id="5b4aec5779"><path d="M -130.171875 46.59375 L 76.976562 156.3125 L 138.585938 39.992188 L -68.558594 -69.726562 Z M -130.171875 46.59375 " clip-rule="nonzero"/></clipPath><clipPath id="111829f3f6"><path d="M 13 89 L 42 89 L 42 115 L 13 115 Z M 13 89 " clip-rule="nonzero"/></clipPath><clipPath id="a5fe9476c2"><path d="M 77.125 156.390625 L 0.640625 115.878906 L 62.25 -0.441406 L 138.734375 40.070312 Z M 77.125 156.390625 " clip-rule="nonzero"/></clipPath><clipPath id="8c0471f193"><path d="M -130.171875 46.59375 L 76.976562 156.3125 L 138.585938 39.992188 L -68.558594 -69.726562 Z M -130.171875 46.59375 " clip-rule="nonzero"/></clipPath><mask id="9f1066d90a"><g filter="url(#c66e7a3d6e)"><rect x="-24.375" width="292.5" fill="#000000" y="-15.675" height="188.099996" fill-opacity="0.61"/></g></mask><clipPath id="d224ab925d"><path d="M 7 1 L 26 1 L 26 23 L 7 23 Z M 7 1 " clip-rule="nonzero"/></clipPath><clipPath id="ef19d02313"><path d="M 64.125 67.390625 L -12.359375 26.878906 L 49.25 -89.441406 L 125.734375 -48.929688 Z M 64.125 67.390625 " clip-rule="nonzero"/></clipPath><clipPath id="eee837d822"><path d="M -143.171875 -42.40625 L 63.976562 67.3125 L 125.585938 -49.007812 L -81.558594 -158.726562 Z M -143.171875 -42.40625 " clip-rule="nonzero"/></clipPath><clipPath id="c1a518f04d"><rect x="0" width="29" y="0" height="26"/></clipPath><clipPath id="4197b46e94"><path d="M 34 53 L 44 53 L 44 59 L 34 59 Z M 34 53 " clip-rule="nonzero"/></clipPath><clipPath id="e413eea86b"><path d="M 77.125 156.390625 L 0.640625 115.878906 L 62.25 -0.441406 L 138.734375 40.070312 Z M 77.125 156.390625 " clip-rule="nonzero"/></clipPath><clipPath id="0e2b914635"><path d="M -130.171875 46.59375 L 76.976562 156.3125 L 138.585938 39.992188 L -68.558594 -69.726562 Z M -130.171875 46.59375 " clip-rule="nonzero"/></clipPath><clipPath id="58b7d1d23c"><path d="M 0.0703125 78 L 15 78 L 15 92 L 0.0703125 92 Z M 0.0703125 78 " clip-rule="nonzero"/></clipPath><clipPath id="331cf4c507"><path d="M 77.125 156.390625 L 0.640625 115.878906 L 62.25 -0.441406 L 138.734375 40.070312 Z M 77.125 156.390625 " clip-rule="nonzero"/></clipPath><clipPath id="5c6bdca5e0"><path d="M -130.171875 46.59375 L 76.976562 156.3125 L 138.585938 39.992188 L -68.558594 -69.726562 Z M -130.171875 46.59375 " clip-rule="nonzero"/></clipPath><clipPath id="c34913c777"><path d="M 63 55 L 73 55 L 73 61 L 63 61 Z M 63 55 " clip-rule="nonzero"/></clipPath><clipPath id="a93f2443e7"><path d="M 77.125 156.390625 L 0.640625 115.878906 L 62.25 -0.441406 L 138.734375 40.070312 Z M 77.125 156.390625 " clip-rule="nonzero"/></clipPath><clipPath id="b94274c9e8"><path d="M -130.171875 46.59375 L 76.976562 156.3125 L 138.585938 39.992188 L -68.558594 -69.726562 Z M -130.171875 46.59375 " clip-rule="nonzero"/></clipPath><clipPath id="422e7b326a"><path d="M 96 69 L 108 69 L 108 94 L 96 94 Z M 96 69 " clip-rule="nonzero"/></clipPath><clipPath id="6725e3cce1"><path d="M 77.125 156.390625 L 0.640625 115.878906 L 62.25 -0.441406 L 138.734375 40.070312 Z M 77.125 156.390625 " clip-rule="nonzero"/></clipPath><clipPath id="9dcda7f5d0"><path d="M -130.171875 46.59375 L 76.976562 156.3125 L 138.585938 39.992188 L -68.558594 -69.726562 Z M -130.171875 46.59375 " clip-rule="nonzero"/></clipPath><clipPath id="0da6a9a9d2"><path d="M 148 131 L 162 131 L 162 139 L 148 139 Z M 148 131 " clip-rule="nonzero"/></clipPath><clipPath id="9309d49d14"><path d="M 181.820312 156.390625 L 105.335938 115.878906 L 166.945312 -0.441406 L 243.433594 40.070312 Z M 181.820312 156.390625 " clip-rule="nonzero"/></clipPath><clipPath id="7736ac5d77"><path d="M -25.476562 46.59375 L 181.671875 156.3125 L 243.28125 39.992188 L 36.136719 -69.726562 Z M -25.476562 46.59375 " clip-rule="nonzero"/></clipPath><clipPath id="48d32d42d2"><path d="M 165 85 L 178 85 L 178 111 L 165 111 Z M 165 85 " clip-rule="nonzero"/></clipPath><clipPath id="8eb524e34d"><path d="M 181.820312 156.390625 L 105.335938 115.878906 L 166.945312 -0.441406 L 243.433594 40.070312 Z M 181.820312 156.390625 " clip-rule="nonzero"/></clipPath><clipPath id="d4359c1110"><path d="M -25.476562 46.59375 L 181.671875 156.3125 L 243.28125 39.992188 L 36.136719 -69.726562 Z M -25.476562 46.59375 " clip-rule="nonzero"/></clipPath><clipPath id="4981b3bd33"><path d="M 118 89 L 147 89 L 147 115 L 118 115 Z M 118 89 " clip-rule="nonzero"/></clipPath><clipPath id="78788bf7b4"><path d="M 181.820312 156.390625 L 105.335938 115.878906 L 166.945312 -0.441406 L 243.433594 40.070312 Z M 181.820312 156.390625 " clip-rule="nonzero"/></clipPath><clipPath id="f59911838b"><path d="M -25.476562 46.59375 L 181.671875 156.3125 L 243.28125 39.992188 L 36.136719 -69.726562 Z M -25.476562 46.59375 " clip-rule="nonzero"/></clipPath><mask id="143c466759"><g filter="url(#c66e7a3d6e)"><rect x="-24.375" width="292.5" fill="#000000" y="-15.675" height="188.099996" fill-opacity="0.61"/></g></mask><clipPath id="f3d382ba60"><path d="M 6 1 L 26 1 L 26 23 L 6 23 Z M 6 1 " clip-rule="nonzero"/></clipPath><clipPath id="7e0c851506"><path d="M 63.820312 67.390625 L -12.664062 26.878906 L 48.945312 -89.441406 L 125.433594 -48.929688 Z M 63.820312 67.390625 " clip-rule="nonzero"/></clipPath><clipPath id="e76cb8b78b"><path d="M -143.476562 -42.40625 L 63.671875 67.3125 L 125.28125 -49.007812 L -81.863281 -158.726562 Z M -143.476562 -42.40625 " clip-rule="nonzero"/></clipPath><clipPath id="de54e3c328"><rect x="0" width="29" y="0" height="26"/></clipPath><clipPath id="2a2d0f80bc"><path d="M 139 53 L 149 53 L 149 59 L 139 59 Z M 139 53 " clip-rule="nonzero"/></clipPath><clipPath id="e6874e2b24"><path d="M 181.820312 156.390625 L 105.335938 115.878906 L 166.945312 -0.441406 L 243.433594 40.070312 Z M 181.820312 156.390625 " clip-rule="nonzero"/></clipPath><clipPath id="28642af8c3"><path d="M -25.476562 46.59375 L 181.671875 156.3125 L 243.28125 39.992188 L 36.136719 -69.726562 Z M -25.476562 46.59375 " clip-rule="nonzero"/></clipPath><clipPath id="d3d5e245aa"><path d="M 105 78 L 119 78 L 119 92 L 105 92 Z M 105 78 " clip-rule="nonzero"/></clipPath><clipPath id="c2cde0192c"><path d="M 181.820312 156.390625 L 105.335938 115.878906 L 166.945312 -0.441406 L 243.433594 40.070312 Z M 181.820312 156.390625 " clip-rule="nonzero"/></clipPath><clipPath id="38c96221e1"><path d="M -25.476562 46.59375 L 181.671875 156.3125 L 243.28125 39.992188 L 36.136719 -69.726562 Z M -25.476562 46.59375 " clip-rule="nonzero"/></clipPath><clipPath id="d3c633c8d2"><path d="M 168 55 L 178 55 L 178 61 L 168 61 Z M 168 55 " clip-rule="nonzero"/></clipPath><clipPath id="25dbb6bcef"><path d="M 181.820312 156.390625 L 105.335938 115.878906 L 166.945312 -0.441406 L 243.433594 40.070312 Z M 181.820312 156.390625 " clip-rule="nonzero"/></clipPath><clipPath id="bc5f199e62"><path d="M -25.476562 46.59375 L 181.671875 156.3125 L 243.28125 39.992188 L 36.136719 -69.726562 Z M -25.476562 46.59375 " clip-rule="nonzero"/></clipPath><clipPath id="5800c28886"><path d="M 201 69 L 213 69 L 213 94 L 201 94 Z M 201 69 " clip-rule="nonzero"/></clipPath><clipPath id="90e9a31541"><path d="M 181.820312 156.390625 L 105.335938 115.878906 L 166.945312 -0.441406 L 243.433594 40.070312 Z M 181.820312 156.390625 " clip-rule="nonzero"/></clipPath><clipPath id="a041696c8a"><path d="M -25.476562 46.59375 L 181.671875 156.3125 L 243.28125 39.992188 L 36.136719 -69.726562 Z M -25.476562 46.59375 " clip-rule="nonzero"/></clipPath></defs><g clip-path="url(#2cd4ecdd7a)"><path fill="none" d="M 0.0703125 0 L 243.429688 0 L 243.429688 156.5 L 0.0703125 156.5 Z M 0.0703125 0 " fill-opacity="1" fill-rule="nonzero"/></g><g clip-path="url(#e6d406cfb1)"><g clip-path="url(#39af400233)"><g clip-path="url(#e18e76e22d)"><path fill="#be3946" d="M 44.554688 138.503906 C 44.5625 138.515625 44.570312 138.53125 44.578125 138.542969 C 45.042969 139.417969 49.992188 136.296875 50.480469 135.882812 C 52.367188 134.3125 54.214844 134.09375 56.457031 135.535156 C 55.0625 133.992188 53.265625 132.820312 51.289062 132.160156 C 50.121094 131.761719 48.859375 131.554688 47.664062 131.820312 C 46.273438 132.136719 45.054688 133.125 44.460938 134.421875 C 43.871094 135.699219 43.910156 137.25 44.554688 138.503906 Z M 44.554688 138.503906 " fill-opacity="1" fill-rule="nonzero"/></g></g></g><g clip-path="url(#4af69c8be3)"><g clip-path="url(#81fa72678f)"><g clip-path="url(#5b4aec5779)"><path fill="#e38286" d="M 72.714844 109.914062 C 72.738281 109.90625 72.773438 109.894531 72.804688 109.882812 C 74.644531 109.273438 70.253906 98.691406 69.625 97.617188 C 67.214844 93.460938 67.417969 89.824219 70.929688 85.964844 C 67.492188 88.152344 64.636719 91.234375 62.699219 94.820312 C 61.558594 96.9375 60.726562 99.304688 60.851562 101.703125 C 60.996094 104.488281 62.5 107.175781 64.804688 108.746094 C 67.082031 110.316406 70.085938 110.753906 72.714844 109.914062 Z M 72.714844 109.914062 " fill-opacity="1" fill-rule="nonzero"/></g></g></g><g clip-path="url(#111829f3f6)"><g clip-path="url(#a5fe9476c2)"><g clip-path="url(#8c0471f193)"><g mask="url(#9f1066d90a)"><g transform="matrix(1, 0, 0, 1, 13, 89)"><g clip-path="url(#c1a518f04d)"><g clip-path="url(#d224ab925d)"><g clip-path="url(#ef19d02313)"><g clip-path="url(#eee837d822)"><path fill="#f0b7ac" d="M 25.6875 17.453125 C 25.703125 17.425781 25.71875 17.398438 25.734375 17.371094 C 26.632812 15.65625 16.117188 11.109375 14.917969 10.769531 C 10.296875 9.464844 7.90625 6.703125 7.746094 1.492188 C 6.804688 5.457031 6.890625 9.660156 7.996094 13.574219 C 8.652344 15.890625 9.695312 18.167969 11.457031 19.804688 C 13.5 21.703125 16.449219 22.585938 19.199219 22.113281 C 21.917969 21.65625 24.382812 19.882812 25.6875 17.453125 Z M 25.6875 17.453125 " fill-opacity="1" fill-rule="nonzero"/></g></g></g></g></g></g></g></g></g><g clip-path="url(#4197b46e94)"><g clip-path="url(#e413eea86b)"><g clip-path="url(#0e2b914635)"><path fill="#b44e5b" d="M 34.363281 58.140625 C 34.363281 58.140625 39.519531 60.792969 43.527344 54.316406 C 43.527344 54.316406 36.058594 50.925781 34.363281 58.140625 Z M 34.363281 58.140625 " fill-opacity="1" fill-rule="nonzero"/></g></g></g><g clip-path="url(#58b7d1d23c)"><g clip-path="url(#331cf4c507)"><g clip-path="url(#5c6bdca5e0)"><path fill="#be3946" d="M 14.019531 83.859375 C 14.019531 83.859375 9.160156 80.394531 5.792969 83.847656 C 2.429688 87.300781 2.152344 91.75 -8.613281 91.308594 C -8.609375 91.3125 -3.089844 69.039062 14.019531 83.859375 Z M 14.019531 83.859375 " fill-opacity="1" fill-rule="nonzero"/></g></g></g><g clip-path="url(#c34913c777)"><g clip-path="url(#a93f2443e7)"><g clip-path="url(#b94274c9e8)"><path fill="#b44e5b" d="M 63.476562 59.957031 C 63.476562 59.957031 68.628906 62.605469 72.640625 56.132812 C 72.640625 56.132812 65.171875 52.742188 63.476562 59.957031 Z M 63.476562 59.957031 " fill-opacity="1" fill-rule="nonzero"/></g></g></g><g clip-path="url(#422e7b326a)"><g clip-path="url(#6725e3cce1)"><g clip-path="url(#9dcda7f5d0)"><path fill="#be3946" d="M 101.238281 93.25 C 101.238281 93.25 105.335938 88.914062 102.386719 85.105469 C 99.4375 81.292969 95.066406 80.402344 96.996094 69.804688 C 96.992188 69.808594 118.28125 78.359375 101.238281 93.25 Z M 101.238281 93.25 " fill-opacity="1" fill-rule="nonzero"/></g></g></g><g clip-path="url(#0da6a9a9d2)"><g clip-path="url(#9309d49d14)"><g clip-path="url(#7736ac5d77)"><path fill="#be3946" d="M 149.25 138.503906 C 149.257812 138.515625 149.265625 138.53125 149.273438 138.542969 C 149.738281 139.417969 154.6875 136.296875 155.175781 135.882812 C 157.0625 134.3125 158.910156 134.09375 161.15625 135.535156 C 159.757812 133.992188 157.960938 132.820312 155.984375 132.160156 C 154.816406 131.761719 153.554688 131.554688 152.359375 131.820312 C 150.96875 132.136719 149.75 133.125 149.15625 134.421875 C 148.566406 135.699219 148.605469 137.25 149.25 138.503906 Z M 149.25 138.503906 " fill-opacity="1" fill-rule="nonzero"/></g></g></g><g clip-path="url(#48d32d42d2)"><g clip-path="url(#8eb524e34d)"><g clip-path="url(#d4359c1110)"><path fill="#e38286" d="M 177.410156 109.914062 C 177.4375 109.90625 177.46875 109.894531 177.5 109.882812 C 179.339844 109.273438 174.949219 98.691406 174.320312 97.617188 C 171.910156 93.460938 172.113281 89.824219 175.625 85.964844 C 172.1875 88.152344 169.332031 91.234375 167.394531 94.820312 C 166.253906 96.9375 165.421875 99.304688 165.546875 101.703125 C 165.691406 104.488281 167.199219 107.175781 169.5 108.746094 C 171.777344 110.316406 174.78125 110.753906 177.410156 109.914062 Z M 177.410156 109.914062 " fill-opacity="1" fill-rule="nonzero"/></g></g></g><g clip-path="url(#4981b3bd33)"><g clip-path="url(#78788bf7b4)"><g clip-path="url(#f59911838b)"><g mask="url(#143c466759)"><g transform="matrix(1, 0, 0, 1, 118, 89)"><g clip-path="url(#de54e3c328)"><g clip-path="url(#f3d382ba60)"><g clip-path="url(#7e0c851506)"><g clip-path="url(#e76cb8b78b)"><path fill="#f0b7ac" d="M 25.386719 17.453125 C 25.398438 17.425781 25.414062 17.398438 25.429688 17.371094 C 26.328125 15.65625 15.8125 11.109375 14.613281 10.769531 C 9.992188 9.464844 7.601562 6.703125 7.441406 1.492188 C 6.5 5.457031 6.585938 9.660156 7.691406 13.574219 C 8.347656 15.890625 9.390625 18.167969 11.152344 19.804688 C 13.195312 21.703125 16.144531 22.585938 18.894531 22.113281 C 21.613281 21.65625 24.078125 19.882812 25.386719 17.453125 Z M 25.386719 17.453125 " fill-opacity="1" fill-rule="nonzero"/></g></g></g></g></g></g></g></g></g><g clip-path="url(#2a2d0f80bc)"><g clip-path="url(#e6874e2b24)"><g clip-path="url(#28642af8c3)"><path fill="#b44e5b" d="M 139.0625 58.140625 C 139.0625 58.140625 144.214844 60.792969 148.226562 54.316406 C 148.226562 54.316406 140.753906 50.925781 139.0625 58.140625 Z M 139.0625 58.140625 " fill-opacity="1" fill-rule="nonzero"/></g></g></g><g clip-path="url(#d3d5e245aa)"><g clip-path="url(#c2cde0192c)"><g clip-path="url(#38c96221e1)"><path fill="#be3946" d="M 118.714844 83.859375 C 118.714844 83.859375 113.855469 80.394531 110.488281 83.847656 C 107.125 87.300781 106.847656 91.75 96.082031 91.308594 C 96.085938 91.3125 101.605469 69.039062 118.714844 83.859375 Z M 118.714844 83.859375 " fill-opacity="1" fill-rule="nonzero"/></g></g></g><g clip-path="url(#d3c633c8d2)"><g clip-path="url(#25dbb6bcef)"><g clip-path="url(#bc5f199e62)"><path fill="#b44e5b" d="M 168.171875 59.957031 C 168.171875 59.957031 173.324219 62.605469 177.335938 56.132812 C 177.335938 56.132812 169.867188 52.742188 168.171875 59.957031 Z M 168.171875 59.957031 " fill-opacity="1" fill-rule="nonzero"/></g></g></g><g clip-path="url(#5800c28886)"><g clip-path="url(#90e9a31541)"><g clip-path="url(#a041696c8a)"><path fill="#be3946" d="M 205.933594 93.25 C 205.933594 93.25 210.035156 88.914062 207.082031 85.105469 C 204.132812 81.292969 199.761719 80.402344 201.691406 69.804688 C 201.6875 69.808594 222.976562 78.359375 205.933594 93.25 Z M 205.933594 93.25 " fill-opacity="1" fill-rule="nonzero"/></g></g></g></svg>