
<svg xmlns="http://www.w3.org/2000/svg" xmlns:xlink="http://www.w3.org/1999/xlink" width="286" zoomAndPan="magnify" viewBox="0 0 214.5 315.74999" height="421" preserveAspectRatio="xMidYMid meet" version="1.0"><defs><filter x="0%" y="0%" width="100%" height="100%" id="db87194c48"><feColorMatrix values="0 0 0 0 1 0 0 0 0 1 0 0 0 0 1 0 0 0 1 0" color-interpolation-filters="sRGB"/></filter><clipPath id="9533191bfd"><path d="M 0 0.242188 L 214 0.242188 L 214 315.257812 L 0 315.257812 Z M 0 0.242188 " clip-rule="nonzero"/></clipPath><mask id="6a6822c569"><g filter="url(#db87194c48)"><rect x="-21.45" width="257.4" fill="#000000" y="-31.574999" height="378.899988" fill-opacity="1"/></g></mask><clipPath id="850572e959"><path d="M 2 1 L 213.609375 1 L 213.609375 315.257812 L 2 315.257812 Z M 2 1 " clip-rule="nonzero"/></clipPath><clipPath id="0778254a78"><rect x="0" width="214" y="0" height="316"/></clipPath></defs><g clip-path="url(#9533191bfd)"><g mask="url(#6a6822c569)"><g transform="matrix(1, 0, 0, 1, 0, -0.000000000000028338)"><g clip-path="url(#0778254a78)"><g clip-path="url(#850572e959)"><path fill="#231f20" d="M 209.546875 304.191406 L 203.367188 293.6875 L 203.273438 293.566406 L 201.507812 291.261719 L 201.179688 290.800781 C 198.378906 286.765625 196.027344 286.804688 192.738281 290.800781 C 188.390625 296.03125 185.296875 301.925781 180.992188 309.601562 C 180.992188 301.433594 181.117188 295.148438 180.945312 288.875 C 180.855469 285.589844 183.09375 285.644531 185.269531 285.039062 C 194.792969 282.273438 196.636719 280.039062 196.445312 270.296875 C 196.191406 257.617188 197.550781 244.890625 195.605469 232.238281 L 195.476562 232.09375 C 194.242188 230.523438 192.796875 229.183594 191.136719 228.078125 C 189.476562 226.972656 187.683594 226.152344 185.757812 225.621094 C 176.949219 223.316406 176.617188 221.78125 183.082031 214.496094 C 183.09375 214.320312 183.167969 214.183594 183.308594 214.078125 C 183.453125 213.972656 183.609375 213.941406 183.777344 213.984375 L 188.214844 209.785156 C 191.09375 202.875 188.214844 197.753906 182.597656 193.753906 C 191.394531 185.949219 192.988281 180.027344 186.703125 175.070312 C 182.019531 171.378906 181.332031 167.339844 181.566406 162.171875 C 181.804688 156.683594 181.375 151.171875 181.652344 145.691406 C 182.957031 119.5 173.355469 99.101562 150.457031 85.382812 C 147.949219 83.847656 144.410156 82.589844 143.949219 78.867188 C 142.90625 70.507812 138.460938 65.226562 129.128906 63.511719 C 136.328125 55.730469 139.496094 47.546875 137.195312 37.875 C 129.027344 27.003906 120.660156 16.277344 112.785156 5.210938 C 109.253906 0.257812 106.570312 1.210938 103.742188 5.308594 C 98.5625 12.839844 93.695312 20.601562 87.519531 27.394531 C 81.644531 37.019531 77.746094 46.839844 83.765625 57.992188 C 84.855469 60.027344 86.273438 63.007812 82.703125 64.136719 C 76.394531 66.136719 74.707031 71.359375 73.855469 76.761719 C 73.25 80.601562 71.484375 82.597656 68.351562 84.65625 C 48.640625 97.636719 37.171875 115.46875 37.050781 139.664062 C 37.003906 148.425781 36.996094 157.183594 36.835938 165.941406 C 36.835938 167.992188 37.132812 169.78125 35.015625 171.851562 C 25.582031 180.925781 25.75 183.550781 34.976562 193.347656 C 30.042969 196.839844 25.957031 200.71875 27.960938 207.589844 C 29.703125 213.546875 36.488281 214.367188 40.242188 218.878906 C 22.988281 221.742188 20.929688 224.125 20.832031 240.804688 C 20.785156 249.066406 21 257.332031 20.730469 265.585938 C 20.46875 273.539062 23.679688 278.535156 31.652344 280.109375 C 34.179688 280.609375 36.519531 281.03125 36.4375 284.570312 C 36.273438 291.347656 36.390625 298.132812 36.390625 304.921875 C 31.785156 299.625 28.476562 294.441406 24.730469 289.566406 C 22.773438 286.996094 21.300781 285.667969 18.535156 288.953125 C 11.652344 297.042969 5.941406 305.710938 3.761719 316.328125 C 0.289062 333.164062 7.367188 346.78125 17.578125 358.988281 C 21.113281 363.214844 20.863281 365.542969 17.792969 369.558594 C 14.253906 374.164062 10.238281 378.667969 7.996094 384.386719 L 35.738281 384.386719 C 31.207031 377.871094 27.292969 372.144531 23.265625 366.464844 C 22.328125 365.144531 20.761719 364.46875 22.566406 362.257812 C 31.078125 351.816406 37.917969 340.460938 39.207031 324.71875 C 53.953125 355.671875 78.46875 367.539062 109.246094 367.339844 C 140.027344 367.140625 164.257812 354.996094 178.144531 324.089844 C 179.011719 339.441406 185.589844 350.488281 193.957031 360.707031 C 195.605469 362.726562 196.867188 364.542969 199.4375 361.183594 C 212.632812 343.871094 219.664062 325.585938 209.546875 304.191406 Z M 209.546875 304.191406 " fill-opacity="0.20" fill-rule="nonzero"/></g><path fill="#ffffff" d="M 129.519531 251.34375 C 124.144531 261.230469 118.242188 270.835938 112.632812 280.617188 C 110.691406 284.015625 108.910156 284.40625 106.84375 280.832031 C 100.613281 269.976562 94.210938 259.214844 88.183594 248.273438 C 85.628906 243.628906 84.746094 238.402344 84.871094 233.019531 C 85.222656 217.070312 95.46875 206.152344 110.085938 206.28125 C 124.375 206.40625 133.878906 217.136719 133.964844 234.316406 C 134.203125 239.730469 132.503906 245.808594 129.519531 251.34375 Z M 129.519531 251.34375 " fill-opacity="1" fill-rule="nonzero"/><path fill="#000000" d="M 109.667969 231.660156 C 105.265625 231.316406 102.425781 228.976562 102.195312 224.753906 C 101.964844 220.53125 104.566406 217.628906 108.949219 217.414062 C 113.332031 217.199219 116.101562 219.792969 116.316406 224.09375 C 116.53125 228.390625 113.785156 230.824219 109.667969 231.660156 Z M 109.667969 231.660156 " fill-opacity="0.50" fill-rule="nonzero"/></g></g></g></g></svg>