<svg xmlns="http://www.w3.org/2000/svg" xmlns:xlink="http://www.w3.org/1999/xlink" width="171" zoomAndPan="magnify" viewBox="0 0 128.25 223.499992" height="298" preserveAspectRatio="xMidYMid meet" version="1.0"><defs><filter x="0%" y="0%" width="100%" height="100%" id="48cc893a2a"><feColorMatrix values="0 0 0 0 1 0 0 0 0 1 0 0 0 0 1 0 0 0 1 0" color-interpolation-filters="sRGB"/></filter><clipPath id="43bf77de22"><path d="M 0 0.402344 L 127.503906 0.402344 L 127.503906 222.601562 L 0 222.601562 Z M 0 0.402344 " clip-rule="nonzero"/></clipPath><mask id="cf914dcc67"><g filter="url(#48cc893a2a)"><rect x="-12.825" width="153.9" fill="#000000" y="-22.349999" height="268.19999" fill-opacity=""/></g></mask><clipPath id="eaecade8fd"><path d="M 1 1 L 125 1 L 125 222.601562 L 1 222.601562 Z M 1 1 " clip-rule="nonzero"/></clipPath><clipPath id="e372b21d9e"><rect x="0" width="128" y="0" height="223"/></clipPath></defs><g clip-path="url(#43bf77de22)"><path fill="none" d="M 0 0.402344 L 127.503906 0.402344 L 127.503906 222.601562 L 0 222.601562 Z M 0 0.402344 " fill-opacity="1" fill-rule="nonzero"/><g mask="url(#cf914dcc67)"><g transform="matrix(1, 0, 0, 1, 0, -0.000000000000005385)"><g clip-path="url(#e372b21d9e)"><path fill="#231f20" d="M 114.230469 210.1875 C 116.25 213.015625 118.015625 215.449219 119.738281 217.90625 C 120.542969 219.058594 121.269531 220.265625 122.328125 221.90625 L 105.992188 221.90625 Z M 114.230469 210.1875 " fill-opacity=".16" fill-rule="nonzero"/><g clip-path="url(#eaecade8fd)"><path fill="#231f20" d="M 121.503906 176.214844 L 117.921875 170.140625 L 117.871094 170.070312 L 116.847656 168.738281 L 116.65625 168.472656 C 115.03125 166.136719 113.667969 166.160156 111.757812 168.472656 C 109.238281 171.496094 107.445312 174.90625 104.949219 179.347656 C 104.949219 174.621094 105.019531 170.984375 104.921875 167.359375 C 104.867188 165.457031 106.167969 165.488281 107.429688 165.136719 C 112.953125 163.539062 114.019531 162.246094 113.910156 156.613281 C 113.761719 149.277344 114.550781 141.914062 113.421875 134.597656 L 113.347656 134.511719 C 111.878906 132.648438 110.003906 131.398438 107.710938 130.769531 C 102.601562 129.4375 102.410156 128.546875 106.160156 124.335938 C 106.167969 124.234375 106.210938 124.152344 106.292969 124.09375 C 106.375 124.03125 106.464844 124.011719 106.5625 124.035156 L 109.136719 121.609375 C 110.804688 117.613281 109.136719 114.648438 105.878906 112.335938 C 110.980469 107.820312 111.90625 104.398438 108.261719 101.527344 C 105.546875 99.390625 105.144531 97.054688 105.28125 94.066406 C 105.421875 90.894531 105.171875 87.703125 105.332031 84.535156 C 106.089844 69.382812 100.519531 57.585938 87.242188 49.648438 C 85.789062 48.761719 83.734375 48.035156 83.46875 45.878906 C 82.863281 41.042969 80.285156 37.988281 74.875 37 C 79.050781 32.496094 80.886719 27.761719 79.550781 22.167969 C 74.816406 15.878906 69.964844 9.675781 65.398438 3.273438 C 63.351562 0.410156 61.792969 0.960938 60.15625 3.332031 C 57.152344 7.6875 54.328125 12.175781 50.746094 16.105469 C 47.34375 21.675781 45.082031 27.355469 48.570312 33.808594 C 49.203125 34.984375 50.027344 36.707031 47.957031 37.359375 C 44.296875 38.519531 43.320312 41.539062 42.824219 44.664062 C 42.472656 46.882812 41.449219 48.039062 39.632812 49.226562 C 28.203125 56.738281 21.554688 67.050781 21.484375 81.046875 C 21.457031 86.117188 21.453125 91.183594 21.359375 96.25 C 21.359375 97.433594 21.53125 98.46875 20.304688 99.667969 C 14.832031 104.917969 14.929688 106.433594 20.28125 112.101562 C 17.417969 114.121094 15.050781 116.363281 16.214844 120.339844 C 17.222656 123.785156 21.15625 124.257812 23.335938 126.871094 C 13.328125 128.527344 12.136719 129.902344 12.078125 139.550781 C 12.050781 144.328125 12.175781 149.113281 12.019531 153.886719 C 11.871094 158.484375 13.730469 161.375 18.355469 162.285156 C 19.816406 162.574219 21.175781 162.820312 21.125 164.867188 C 21.035156 168.789062 21.101562 172.714844 21.101562 176.636719 C 18.429688 173.574219 16.511719 170.578125 14.339844 167.757812 C 13.203125 166.269531 12.351562 165.5 10.746094 167.402344 C 6.753906 172.082031 3.445312 177.097656 2.179688 183.238281 C 0.167969 192.976562 4.273438 200.851562 10.191406 207.914062 C 12.242188 210.359375 12.097656 211.703125 10.316406 214.027344 C 8.265625 216.691406 5.9375 219.296875 4.636719 222.605469 L 20.722656 222.605469 C 18.097656 218.835938 15.824219 215.523438 13.488281 212.238281 C 12.945312 211.472656 12.039062 211.082031 13.085938 209.804688 C 18.019531 203.765625 21.984375 197.199219 22.734375 188.089844 C 31.285156 205.996094 45.5 212.859375 63.347656 212.742188 C 81.195312 212.628906 95.246094 205.605469 103.296875 187.726562 C 103.800781 196.605469 107.613281 202.996094 112.464844 208.90625 C 113.421875 210.074219 114.152344 211.128906 115.644531 209.183594 C 123.296875 199.167969 127.371094 188.59375 121.503906 176.214844 Z M 121.503906 176.214844 " fill-opacity=".16" fill-rule="nonzero"/></g><path fill="#ffffff" d="M 75.101562 145.648438 C 71.984375 151.367188 68.5625 156.921875 65.308594 162.578125 C 64.183594 164.546875 63.152344 164.773438 61.953125 162.703125 C 58.339844 156.425781 54.628906 150.199219 51.132812 143.871094 C 49.652344 141.1875 49.140625 138.160156 49.210938 135.050781 C 49.417969 125.820312 55.359375 119.507812 63.832031 119.582031 C 72.121094 119.652344 77.628906 125.863281 77.679688 135.800781 C 77.816406 138.929688 76.832031 142.445312 75.101562 145.648438 Z M 75.101562 145.648438 " fill-opacity="1" fill-rule="nonzero"/><path fill="#020202" d="M 63.59375 134.261719 C 61.039062 134.0625 59.390625 132.710938 59.257812 130.265625 C 59.125 127.824219 60.632812 126.144531 63.171875 126.023438 C 65.714844 125.898438 67.320312 127.398438 67.445312 129.886719 C 67.570312 132.371094 65.976562 133.777344 63.59375 134.261719 Z M 63.59375 134.261719 " fill-opacity=".16" fill-rule="nonzero"/><path fill="#eda506" d="M 77.6875 189.164062 C 76.632812 189.949219 75.523438 190.644531 74.355469 191.25 C 73.1875 191.855469 71.984375 192.367188 70.734375 192.78125 C 69.488281 193.195312 68.214844 193.511719 66.917969 193.722656 C 65.617188 193.9375 64.3125 194.046875 62.996094 194.050781 C 61.683594 194.054688 60.375 193.957031 59.074219 193.753906 C 57.777344 193.554688 56.5 193.25 55.25 192.84375 C 54 192.441406 52.789062 191.9375 51.617188 191.34375 C 50.445312 190.746094 49.328125 190.058594 48.269531 189.285156 C 51.636719 186.011719 55.125 184.066406 59.898438 185.214844 C 62.160156 185.667969 64.417969 185.652344 66.671875 185.160156 C 69.8125 184.574219 72.632812 184.964844 75.046875 187.234375 C 75.890625 187.925781 76.769531 188.570312 77.6875 189.164062 Z M 77.6875 189.164062 " fill-opacity=".16" fill-rule="nonzero"/><path fill="#231f20" d="M 48.269531 189.28125 C 50.710938 189.617188 53.164062 189.894531 55.613281 190.066406 C 58.058594 190.238281 60.507812 190.34375 62.980469 190.316406 C 65.457031 190.289062 67.878906 190.199219 70.351562 190.003906 C 72.828125 189.808594 75.25 189.515625 77.6875 189.160156 C 76.484375 189.429688 75.269531 189.648438 74.054688 189.851562 C 72.839844 190.058594 71.613281 190.203125 70.382812 190.34375 C 67.925781 190.605469 65.457031 190.71875 62.980469 190.746094 C 60.507812 190.773438 58.042969 190.644531 55.582031 190.398438 C 53.121094 190.164062 50.683594 189.789062 48.269531 189.28125 Z M 48.269531 189.28125 " fill-opacity=".16" fill-rule="nonzero"/></g></g></g></g></svg>